<?xml version="1.0" encoding="UTF-8"?>
<svg version="1.1" xmlns="http://www.w3.org/2000/svg" width="715" height="292">
<path d="M0 0 C3.35776549 2.78214855 4.94595676 5.77005478 5.46391761 10.14983654 C5.57797334 13.05639694 5.59197898 15.94899865 5.57518005 18.85778809 C5.58056559 19.97349103 5.58595113 21.08919398 5.59149987 22.23870611 C5.6058125 25.97891091 5.59866735 29.71876346 5.59155273 33.45898438 C5.59725452 36.13976666 5.6041173 38.82052361 5.61235046 41.501297 C5.62953899 48.0277249 5.63037847 54.55405653 5.62513756 61.0805012 C5.62109513 66.3849508 5.62254027 71.68937195 5.62788582 76.99382019 C5.62863424 77.74894853 5.62938266 78.50407687 5.63015376 79.28208789 C5.63168525 80.81614531 5.63322359 82.35020272 5.63476873 83.88426012 C5.64849368 98.26710309 5.64305587 112.64989165 5.63158352 127.03273338 C5.62164858 140.19096722 5.63459628 153.3490605 5.65851771 166.50727266 C5.68289885 180.02019451 5.69251917 193.53305087 5.68586498 207.04599428 C5.68237089 214.63171254 5.68461744 222.21732266 5.70211601 229.80302429 C5.7168256 236.25972016 5.71748972 242.71623171 5.7000451 249.17292392 C5.69152273 252.46692667 5.6915769 255.76053156 5.70469666 259.05452919 C5.71783638 262.62573658 5.70642007 266.19604374 5.68870544 269.76721191 C5.69831045 270.80787103 5.70791546 271.84853015 5.71781152 272.92072439 C5.65681719 278.88208903 5.11764532 282.24887968 1.1875 286.8125 C-1.83745471 289.72633393 -4.01894035 290.26579345 -8.1875 290.3125 C-11.95173749 290.21198632 -14.40418353 289.93915318 -17.375 287.5625 C-20.76487262 283.73802833 -22.06102726 281.18905427 -22.06976891 276.07631969 C-22.0762178 275.1217054 -22.08266669 274.16709111 -22.089311 273.18354911 C-22.0862138 272.13774643 -22.0831166 271.09194374 -22.07992554 270.01445007 C-22.08445665 268.90116154 -22.08898776 267.78787301 -22.09365618 266.64084846 C-22.10635318 262.89683573 -22.10467638 259.15296747 -22.10302734 255.40893555 C-22.1090093 252.73007665 -22.11575714 250.05122922 -22.12338257 247.37237549 C-22.13999986 240.84268508 -22.14549245 234.31303077 -22.14660732 227.78332099 C-22.14755751 222.4754997 -22.15166632 217.16769033 -22.15800858 211.85987282 C-22.17562342 196.81181375 -22.18484713 181.76378321 -22.18334763 166.71571376 C-22.18326772 165.90436465 -22.1831878 165.09301553 -22.18310547 164.25708008 C-22.18302371 163.44474042 -22.18294195 162.63240077 -22.18285771 161.79544476 C-22.18204486 148.63129771 -22.20118141 135.4672651 -22.2293822 122.30315115 C-22.25810889 108.78690423 -22.2719226 95.27071311 -22.27019465 81.75443488 C-22.26953064 74.16585287 -22.27502741 66.57739081 -22.29655075 58.98883629 C-22.31475981 52.52737222 -22.31911229 46.06608246 -22.3055319 39.60460385 C-22.29900053 36.30845933 -22.30106321 33.01271879 -22.3162384 29.71659279 C-22.33163392 26.14126211 -22.32241913 22.56681206 -22.30697632 18.99150085 C-22.31726344 17.95239034 -22.32755057 16.91327982 -22.33814943 15.84268111 C-22.2788359 9.63610299 -21.54636353 5.8425845 -17.8125 0.8125 C-11.61959298 -2.9985197 -6.61090625 -2.79127153 0 0 Z " fill="#FFFFFF" transform="translate(68.8125,2.1875)"/>
<path d="M0 0 C2.15650423 1.75638176 3.86926846 3.37916192 5.12109375 5.8828125 C5.22970124 8.44882568 5.2777167 10.98835328 5.28172302 13.55509949 C5.28935475 14.75694404 5.28935475 14.75694404 5.29714066 15.98306829 C5.31290707 18.68296497 5.32140124 21.38283481 5.32983398 24.08276367 C5.3393691 26.01256482 5.34926011 27.94236423 5.35948181 29.87216187 C5.39090759 36.22334759 5.4111387 42.57454658 5.4296875 48.92578125 C5.43463348 50.54557683 5.43463348 50.54557683 5.43967938 52.19809556 C5.47046281 62.37912551 5.49717568 72.56015836 5.51409817 82.74122143 C5.5360097 95.77207587 5.57798533 108.80251849 5.64753574 121.83320826 C5.69475694 130.9908171 5.71902928 140.14831476 5.72629505 149.30604154 C5.73125435 154.77763835 5.74636179 160.24877135 5.78603935 165.72023582 C5.82288534 170.86921823 5.83132192 176.01747156 5.81803322 181.16656113 C5.8180872 183.05518191 5.82839768 184.94383483 5.84978485 186.83233452 C5.87745938 189.41430473 5.86796299 191.99361468 5.84934998 194.5756073 C5.8661449 195.32036998 5.88293983 196.06513267 5.9002437 196.83246392 C5.8065802 202.04336534 4.19890704 204.72483035 0.70095974 208.54595643 C-2.40107084 211.17084261 -5.87979845 211.21862363 -9.81640625 211.16796875 C-13.94949706 210.59653763 -16.66589784 208.09754559 -19.52222443 205.23715782 C-21.45147954 201.88918583 -21.29999115 198.72223696 -21.27331543 194.96328735 C-21.27940653 194.15964323 -21.28549764 193.35599911 -21.29177332 192.52800214 C-21.30843852 189.83183875 -21.30362253 187.13614581 -21.29882812 184.43994141 C-21.30616645 182.50821948 -21.31475198 180.57650195 -21.32449341 178.64479065 C-21.34674388 173.39475338 -21.34963829 168.14487289 -21.3477459 162.89479494 C-21.34762635 158.51351185 -21.35618409 154.13226217 -21.36452341 149.75098836 C-21.38377049 139.41502435 -21.38663666 129.07914109 -21.37988281 118.74316406 C-21.37324185 108.07759426 -21.39610573 97.41237029 -21.43319654 86.74687064 C-21.4638776 77.59261155 -21.47525527 68.43846379 -21.47135973 59.2841543 C-21.46929046 53.81550651 -21.47479892 48.34712774 -21.49925232 42.87852859 C-21.52149024 37.73528878 -21.51966607 32.59261166 -21.4993248 27.44936943 C-21.49590945 25.56196469 -21.5010264 23.6745223 -21.51530838 21.7871685 C-21.53346731 19.20955603 -21.52077804 16.63385925 -21.50036621 14.05630493 C-21.51288406 13.30999364 -21.52540191 12.56368236 -21.53829908 11.79475558 C-21.44109514 6.06636429 -19.79334269 3.76297103 -15.87890625 -0.1171875 C-11.17775373 -3.12070161 -4.77508932 -2.8392423 0 0 Z " fill="#FFFFFF" transform="translate(114.87890625,42.1171875)"/>
<path d="M0 0 C3.41742749 2.7529277 5.95658528 5.18906128 6.75615788 9.61302853 C6.76036826 11.15409944 6.76036826 11.15409944 6.7646637 12.7263031 C6.77738815 13.91090118 6.79011261 15.09549927 6.80322266 16.31599426 C6.79669678 17.60704575 6.7901709 18.89809723 6.78344727 20.22827148 C6.7905084 21.60842816 6.79925424 22.98857708 6.80955505 24.36871338 C6.83203821 28.11056349 6.82911195 31.85199042 6.82023358 35.59388232 C6.81511961 38.72013973 6.8224196 41.8463179 6.82970566 44.97256714 C6.84670142 52.3490509 6.84314239 59.72532778 6.82641602 67.10180664 C6.80949529 74.70631826 6.82532883 82.31025582 6.8576389 89.91470474 C6.88434833 96.44907099 6.89160718 102.98325868 6.88312382 109.51767403 C6.87819841 113.41801923 6.8803888 117.31801909 6.90091133 121.21832085 C6.91929006 124.88674254 6.91328433 128.5543397 6.88871193 132.22271729 C6.88133059 134.20631186 6.89854272 136.18995046 6.91653442 138.17347717 C6.81293761 147.89475849 6.81293761 147.89475849 3.85118103 151.56922913 C-0.2007778 155.06365766 -2.88751001 156.03408657 -8.1875 155.75 C-13.11236073 155.0441033 -15.40605662 153.48268176 -18.75 149.8125 C-20.37838998 145.80074869 -21.00153298 142.40157159 -21.01069641 138.08888245 C-21.02132362 136.41306091 -21.02132362 136.41306091 -21.03216553 134.7033844 C-21.02968811 133.49230515 -21.02721069 132.28122589 -21.0246582 131.03344727 C-21.0323246 129.10316177 -21.0323246 129.10316177 -21.04014587 127.13388062 C-21.05349995 123.61525401 -21.0541186 120.09673505 -21.05158257 116.57808805 C-21.05051048 113.63580941 -21.05540228 110.69355234 -21.060188 107.75127834 C-21.07127061 100.80772048 -21.07172752 93.86421672 -21.06567383 86.9206543 C-21.05963344 79.76786682 -21.07194945 72.61527602 -21.0932439 65.46252209 C-21.11088077 59.31116217 -21.116858 53.15986475 -21.11360615 47.00848049 C-21.11179658 43.33902474 -21.11439688 39.66970932 -21.12832069 36.00027657 C-21.14327254 31.90703761 -21.13391074 27.8141971 -21.12231445 23.72094727 C-21.12995819 22.51189224 -21.13760193 21.30283722 -21.14547729 20.05714417 C-21.09903385 12.64112925 -20.67234364 7.28278308 -15.75 1.4375 C-11.22660121 -2.23776152 -5.17009388 -2.23254054 0 0 Z " fill="#FFFFFF" transform="translate(20.75,67.1875)"/>
<path d="M0 0 C2.13218079 0.00096577 4.2606792 -0.04050515 6.39233398 -0.08496094 C13.97790462 -0.15142284 20.24787121 0.03968539 25.96850586 5.50097656 C30.04274279 10.72109263 29.64386337 17.16300604 28.96850586 23.50097656 C28.20711402 25.86391674 27.35529429 27.42079392 25.96850586 29.50097656 C26.77288086 30.42910156 27.57725586 31.35722656 28.40600586 32.31347656 C32.60278036 37.15590868 32.30774905 42.07962891 32.24584961 48.26269531 C31.85064522 52.87712402 30.87894128 54.90122748 27.96850586 58.50097656 C20.69353405 64.14279144 14.03259983 63.71821096 5.23510742 63.74121094 C2.97659828 63.7509417 0.71898999 63.78198833 -1.53930664 63.81347656 C-2.97419708 63.82000462 -4.40909401 63.82525586 -5.84399414 63.82910156 C-7.14981445 63.83844727 -8.45563477 63.84779297 -9.80102539 63.85742188 C-13.03149414 63.50097656 -13.03149414 63.50097656 -14.70913696 62.32403564 C-16.53589662 59.80558538 -16.41226393 58.07211632 -16.41967773 54.97558594 C-16.42913422 53.84431274 -16.4385907 52.71303955 -16.44833374 51.54748535 C-16.44226105 50.32557495 -16.43618835 49.10366455 -16.42993164 47.84472656 C-16.43280182 46.59091187 -16.435672 45.33709717 -16.43862915 44.04528809 C-16.44067241 41.39201906 -16.43662882 38.73957685 -16.42260742 36.08642578 C-16.405515 32.68656022 -16.41535731 29.28740511 -16.43332481 25.88756561 C-16.44677503 22.64409378 -16.43735648 19.40070766 -16.42993164 16.15722656 C-16.43600433 14.93531616 -16.44207703 13.71340576 -16.44833374 12.45446777 C-16.43414902 10.75755798 -16.43414902 10.75755798 -16.41967773 9.02636719 C-16.41729095 8.02947876 -16.41490417 7.03259033 -16.41244507 6.00549316 C-16.03149414 3.50097656 -16.03149414 3.50097656 -14.69844055 1.68188477 C-10.79088823 -1.08632696 -4.67622603 -0.01494514 0 0 Z M-4.03149414 11.50097656 C-4.03149414 16.12097656 -4.03149414 20.74097656 -4.03149414 25.50097656 C-1.28090033 25.58205302 1.46729607 25.64150469 4.21850586 25.68847656 C4.99581055 25.71361328 5.77311523 25.73875 6.57397461 25.76464844 C11.19747538 25.82421522 11.19747538 25.82421522 15.44897461 24.16894531 C17.75584153 21.63672892 18.03646983 19.8991749 17.96850586 16.50097656 C15.9701716 13.76325862 14.40239111 11.78716031 10.96240234 11.10058594 C8.67421778 11.00921085 6.4424301 11.0639019 4.15600586 11.18847656 C3.36774414 11.21103516 2.57948242 11.23359375 1.76733398 11.25683594 C-0.16643343 11.31543495 -2.09921582 11.40510829 -4.03149414 11.50097656 Z M-4.03149414 36.50097656 C-4.03149414 41.78097656 -4.03149414 47.06097656 -4.03149414 52.50097656 C-0.94792609 52.554969 2.13469474 52.59464612 5.21850586 52.62597656 C6.09120117 52.64273438 6.96389648 52.65949219 7.86303711 52.67675781 C9.12954102 52.68642578 9.12954102 52.68642578 10.42163086 52.69628906 C11.5842041 52.71199951 11.5842041 52.71199951 12.77026367 52.72802734 C15.30425929 52.46629745 16.84533726 51.9058964 18.96850586 50.50097656 C20.61714198 46.7019455 21.39300583 44.62465296 19.90600586 40.68847656 C17.30013428 37.74636348 14.92815208 36.65440678 10.96972656 36.34448242 C8.69508197 36.30449696 6.43042103 36.32640842 4.15600586 36.37597656 C3.36774414 36.385 2.57948242 36.39402344 1.76733398 36.40332031 C-0.1657408 36.42675152 -2.09865794 36.46261818 -4.03149414 36.50097656 Z " fill="#FFFFFF" transform="translate(590.031494140625,54.4990234375)"/>
<path d="M0 0 C4.72448717 0.64845902 6.81649358 3.66733089 9.61303711 7.27807617 C11.18395232 9.4183545 12.72097558 11.57960705 14.25 13.75 C15.38935741 15.34856047 16.5300136 16.94619594 17.671875 18.54296875 C18.25001953 19.35169434 18.82816406 20.16041992 19.42382812 20.99365234 C23.91315933 27.21433415 28.56606629 33.31480915 33.1875 39.4375 C33.20208252 38.36266357 33.21666504 37.28782715 33.23168945 36.18041992 C33.2896489 32.19375283 33.36688129 28.20765199 33.44995117 24.22143555 C33.48321172 22.49594307 33.51124019 20.77034151 33.53393555 19.04467773 C33.56746153 16.56446834 33.61977406 14.0852597 33.67578125 11.60546875 C33.68217117 10.83349655 33.6885611 10.06152435 33.69514465 9.26615906 C33.84113807 3.95190202 33.84113807 3.95190202 35.52807617 1.4465332 C38.11420584 -0.12599496 40.24084136 0.12402568 43.1875 0.4375 C45.84358754 3.09358754 45.44060262 4.34054859 45.44628906 8.04882812 C45.45259338 9.22344604 45.45889771 10.39806396 45.46539307 11.60827637 C45.4613446 12.88223267 45.45729614 14.15618896 45.453125 15.46875 C45.45599518 17.42174011 45.45599518 17.42174011 45.45892334 19.41418457 C45.46187391 22.17151628 45.45757924 24.92871849 45.44824219 27.68603516 C45.43684753 31.22377073 45.44340738 34.76120287 45.45538712 38.29892731 C45.46434394 41.66805934 45.4580764 45.03710934 45.453125 48.40625 C45.45717346 49.6802063 45.46122192 50.9541626 45.46539307 52.26672363 C45.45908875 53.44134155 45.45278442 54.61595947 45.44628906 55.82617188 C45.44469788 56.8638269 45.44310669 57.90148193 45.44146729 58.97058105 C45.1875 61.4375 45.1875 61.4375 43.1875 63.4375 C40 64.0625 40 64.0625 36.1875 63.4375 C30.26985789 58.82562868 26.25758047 51.43704142 21.96484375 45.3359375 C17.19460169 38.58982468 12.16898262 32.02812134 7.1875 25.4375 C7.17291748 26.48204346 7.15833496 27.52658691 7.14331055 28.6027832 C7.08534449 32.47764345 7.00811226 36.35192151 6.92504883 40.22631836 C6.89179137 41.90330559 6.86376192 43.58040497 6.84106445 45.25756836 C6.80753263 47.66829225 6.75522022 50.07798762 6.69921875 52.48828125 C6.68963387 53.61342888 6.68963387 53.61342888 6.67985535 54.76130676 C6.53389934 59.92657517 6.53389934 59.92657517 4.84692383 62.41479492 C2.2636476 64.00687144 0.14060145 63.75165973 -2.8125 63.4375 C-5.46858754 60.78141246 -5.06560262 59.53445141 -5.07128906 55.82617188 C-5.07759338 54.65155396 -5.08389771 53.47693604 -5.09039307 52.26672363 C-5.0863446 50.99276733 -5.08229614 49.71881104 -5.078125 48.40625 C-5.08003845 47.10425659 -5.0819519 45.80226318 -5.08392334 44.46081543 C-5.08687391 41.70348372 -5.08257924 38.94628151 -5.07324219 36.18896484 C-5.06184753 32.65122927 -5.06840738 29.11379713 -5.08038712 25.57607269 C-5.08934394 22.20694066 -5.0830764 18.83789066 -5.078125 15.46875 C-5.08217346 14.1947937 -5.08622192 12.9208374 -5.09039307 11.60827637 C-5.08408875 10.43365845 -5.07778442 9.25904053 -5.07128906 8.04882812 C-5.06969788 7.0111731 -5.06810669 5.97351807 -5.06646729 4.90441895 C-4.68729448 1.22131239 -3.58727711 0.55802088 0 0 Z " fill="#FFFFFF" transform="translate(464.8125,54.5625)"/>
<path d="M0 0 C0.76256104 0.00809692 1.52512207 0.01619385 2.31079102 0.02453613 C3.09848877 0.02070923 3.88618652 0.01688232 4.69775391 0.01293945 C6.36207356 0.01021917 8.02643587 0.01758867 9.69067383 0.03430176 C12.23949413 0.05571224 14.78549597 0.03450675 17.33422852 0.00891113 C18.95142224 0.01155439 20.56861421 0.01667934 22.18579102 0.02453613 C23.32963257 0.01239075 23.32963257 0.01239075 24.49658203 0 C29.74942346 0.09317349 29.74942346 0.09317349 32.26391602 2.42492676 C33.56086593 5.23241159 33.23720897 6.66510289 32.24829102 9.55578613 C30.24829102 11.55578613 30.24829102 11.55578613 27.54272461 11.78283691 C26.4220459 11.77236328 25.30136719 11.76188965 24.14672852 11.75109863 C22.32915039 11.74143066 22.32915039 11.74143066 20.47485352 11.73156738 C19.20383789 11.71480957 17.93282227 11.69805176 16.62329102 11.68078613 C15.34454102 11.6717627 14.06579102 11.66273926 12.74829102 11.65344238 C9.58154522 11.62980995 6.41489517 11.59393799 3.24829102 11.55578613 C3.24829102 16.17578613 3.24829102 20.79578613 3.24829102 25.55578613 C4.87379883 25.52098145 6.49930664 25.48617676 8.17407227 25.45031738 C10.3029682 25.42218219 12.43187529 25.39488175 14.56079102 25.36828613 C15.63264648 25.34314941 16.70450195 25.3180127 17.80883789 25.29211426 C18.83686523 25.28244629 19.86489258 25.27277832 20.92407227 25.26281738 C22.34586792 25.23925171 22.34586792 25.23925171 23.79638672 25.21520996 C26.24829102 25.55578613 26.24829102 25.55578613 28.09667969 26.84753418 C29.24829102 28.55578613 29.24829102 28.55578613 28.99829102 32.18078613 C28.24829102 35.55578613 28.24829102 35.55578613 27.24829102 36.55578613 C25.46757855 36.64304836 23.68345961 36.66277654 21.90063477 36.65344238 C20.82104492 36.65021973 19.74145508 36.64699707 18.62915039 36.64367676 C17.4928418 36.63529785 16.3565332 36.62691895 15.18579102 36.61828613 C14.04561523 36.61377441 12.90543945 36.6092627 11.73071289 36.60461426 C8.90321684 36.59278373 6.07574757 36.57484764 3.24829102 36.55578613 C3.24829102 41.83578613 3.24829102 47.11578613 3.24829102 52.55578613 C5.16254883 52.50937988 7.07680664 52.46297363 9.04907227 52.41516113 C11.55296296 52.37764966 14.05687047 52.34124884 16.56079102 52.30578613 C17.82342773 52.27227051 19.08606445 52.23875488 20.38696289 52.20422363 C21.59545898 52.19133301 22.80395508 52.17844238 24.04907227 52.16516113 C25.72223511 52.13374023 25.72223511 52.13374023 27.42919922 52.10168457 C30.24829102 52.55578613 30.24829102 52.55578613 32.14746094 54.4161377 C33.24829102 56.55578613 33.24829102 56.55578613 33.06079102 59.18078613 C32.24829102 61.55578613 32.24829102 61.55578613 30.24829102 63.55578613 C27.55869362 63.76781031 24.97465379 63.85976227 22.28344727 63.85656738 C21.49433456 63.86085251 20.70522186 63.86513763 19.89219666 63.86955261 C18.22192342 63.87529976 16.55162516 63.87579334 14.88134766 63.87145996 C12.3241913 63.86830268 9.76819462 63.89174364 7.21118164 63.91711426 C5.58943831 63.91938747 3.96769187 63.92009064 2.34594727 63.91906738 C1.58024918 63.92827713 0.81455109 63.93748688 0.02565002 63.94697571 C-5.25600065 63.90090387 -5.25600065 63.90090387 -7.45329285 62.37112427 C-9.23405084 59.88141562 -9.1324401 58.18585779 -9.13989258 55.13806152 C-9.14934906 54.03003677 -9.15880554 52.92201202 -9.16854858 51.78041077 C-9.16247589 50.5835112 -9.1564032 49.38661163 -9.15014648 48.15344238 C-9.15301666 46.9241954 -9.15588684 45.69494843 -9.15884399 44.42845154 C-9.16141072 41.15996462 -9.14932596 37.89190433 -9.13256836 34.62347412 C-9.12287035 31.30463297 -9.14587101 27.98591585 -9.16186523 24.66711426 C-9.15988258 22.14172139 -9.15603844 19.61632916 -9.15014648 17.09094238 C-9.15621918 15.89606705 -9.16229187 14.70119171 -9.16854858 13.47010803 C-9.15436386 11.80334267 -9.15436386 11.80334267 -9.13989258 10.10290527 C-9.1375058 9.12600235 -9.13511902 8.14909943 -9.13265991 7.14259338 C-8.27755403 1.33608676 -5.62142766 0.09971137 0 0 Z " fill="#FFFFFF" transform="translate(681.751708984375,54.4442138671875)"/>
<path d="M0 0 C2.52555534 1.89267386 4.06237841 3.47258883 5.21484375 6.42578125 C5.21484375 9.30842932 5.0565732 10.62117583 3.21484375 12.86328125 C0.58984375 13.92578125 0.58984375 13.92578125 -2.78515625 13.86328125 C-4.89185227 12.73942516 -6.80411927 11.43283684 -8.77734375 10.08984375 C-11.81613494 8.23346158 -14.24830077 7.86328125 -17.78515625 7.86328125 C-20.30394701 8.64855131 -22.41892001 9.65601786 -24.78515625 10.86328125 C-24.78515625 12.84328125 -24.78515625 14.82328125 -24.78515625 16.86328125 C-19.45599854 19.63397165 -14.12641945 22.16172137 -8.53515625 24.36328125 C-3.11629287 26.59211966 1.6623937 28.66135303 4.33984375 34.18359375 C6.16581016 39.77561588 6.37190287 46.37713541 3.71484375 51.73828125 C0.55845229 56.44458537 -4.52359956 59.10942902 -9.78515625 60.86328125 C-20.62188103 61.71294733 -28.18001658 60.54944275 -36.84765625 53.98828125 C-39.3176332 51.72461328 -39.7377839 51.10488022 -40.41015625 47.67578125 C-39.78515625 44.86328125 -39.78515625 44.86328125 -38.72265625 42.92578125 C-35.52778172 41.17375328 -33.21000301 41.96200579 -29.78515625 42.86328125 C-28.41082715 44.15431768 -27.07619268 45.48895215 -25.78515625 46.86328125 C-20.8118499 49.29210528 -16.06180142 49.2950844 -10.78515625 47.86328125 C-8.23608999 45.9889562 -8.23608999 45.9889562 -6.78515625 43.86328125 C-7.21446176 41.44087327 -7.21446176 41.44087327 -8.78515625 38.86328125 C-12.35659846 36.74687105 -15.87273684 35.21858099 -19.734375 33.71484375 C-26.86701741 30.90474373 -33.05643937 28.25295623 -37.22265625 21.55078125 C-38.57253359 15.10136729 -38.4581541 9.50139526 -35.19140625 3.65625 C-26.99387092 -6.79560755 -10.45970339 -6.66033629 0 0 Z " fill="#FFFFFF" transform="translate(219.78515625,58.13671875)"/>
<path d="M0 0 C3 2.625 3 2.625 5 5 C5.495 5.495 5.495 5.495 6 6 C6.45875252 11.27565392 6.45875252 11.27565392 4.8125 13.875 C2.28398588 15.44442256 0.9353029 15.48921715 -2 15 C-2.7425 14.38125 -3.485 13.7625 -4.25 13.125 C-7.93840241 10.27487086 -11.35490715 9.24573017 -16 9 C-18.91403558 9.56872442 -20.40772453 10.37982783 -23 12 C-24.49169424 13.79871104 -24.49169424 13.79871104 -24 16 C-20.19192331 20.60357434 -16.55306615 22.27309543 -11.0625 24.0625 C0.54186952 27.93062317 0.54186952 27.93062317 4.4609375 32.82421875 C7.33320836 38.67923242 8.20162031 43.82436943 6.375 50.171875 C4.02943489 55.74259213 0.36516365 58.43309419 -5 61 C-12.96410123 63.65470041 -22.32312738 62.80966782 -29.8671875 59.26171875 C-33.40851296 57.16675882 -35.51283552 55.33803654 -38 52 C-38.5625 48.25 -38.5625 48.25 -38 45 C-34.7495723 42.8330482 -33.76741021 42.54281812 -30 43 C-28.11328125 44.27734375 -28.11328125 44.27734375 -26.3125 45.9375 C-21.81825512 49.52270102 -17.71192714 50.45695417 -12 50 C-8.47751994 48.74505538 -8.47751994 48.74505538 -6 47 C-5.49830585 44.16926564 -5.49830585 44.16926564 -6 41 C-10.90295644 37.07003337 -16.25537111 35.30326346 -22.16601562 33.37695312 C-27.8282271 31.4035138 -30.91972127 28.43894748 -34.8125 23.875 C-36.91434647 18.78631907 -36.94624924 13.18987165 -35.37890625 7.90625 C-32.95636464 2.99656566 -28.86119545 0.29767441 -24 -2 C-16.27200988 -4.47671894 -7.1950138 -3.68419381 0 0 Z " fill="#FFFFFF" transform="translate(324,57)"/>
<path d="M0 0 C5.26366757 9.86841336 9.51389833 20.11163093 13.71582031 30.46508789 C14.88167694 33.32890125 16.06560237 36.18482902 17.25 39.04101562 C17.9985127 40.87714926 18.74594749 42.71372277 19.4921875 44.55078125 C19.84521942 45.39570633 20.19825134 46.24063141 20.5619812 47.11116028 C22.47522652 51.88917127 23.59457916 55.75884793 23 61 C21 63 21 63 17.5625 63.4375 C14 63 14 63 12.3125 61.125 C10.48484161 56.77343241 8.75288828 52.38222071 7 48 C-0.26 48 -7.52 48 -15 48 C-15.78375 50.10375 -16.5675 52.2075 -17.375 54.375 C-19.75 60.75 -19.75 60.75 -22 63 C-25.5 63.25 -25.5 63.25 -29 63 C-31 61 -31 61 -31.08917236 59.12762451 C-30.4294709 53.54449098 -29.05041103 48.83876446 -26.796875 43.703125 C-26.47720764 42.94763367 -26.15754028 42.19214233 -25.82818604 41.41375732 C-24.81321262 39.02092773 -23.78234091 36.63538087 -22.75 34.25 C-21.73844735 31.88470199 -20.73030508 29.51797993 -19.7232666 27.15075684 C-19.06789172 25.61146318 -18.41028375 24.07311823 -17.75036621 22.5357666 C-15.34933223 16.91767093 -13.16779743 11.25055334 -11.11425781 5.49511719 C-8.55965533 -0.22531169 -6.09091845 -0.34476897 0 0 Z M-5 21 C-5.83986084 22.93467942 -6.67168027 24.87285129 -7.5 26.8125 C-7.9640625 27.89144531 -8.428125 28.97039062 -8.90625 30.08203125 C-10.17549303 32.94882024 -10.17549303 32.94882024 -10 36 C-6.04 36 -2.08 36 2 36 C-0.1907994 28.39230548 -0.1907994 28.39230548 -3 21 C-3.66 21 -4.32 21 -5 21 Z " fill="#FFFFFF" transform="translate(546,55)"/>
<path d="M0 0 C3.5625 0.6875 3.5625 0.6875 5.48730469 3.03710938 C8.3331183 7.67640519 10.27849765 12.75577567 12.328125 17.78125 C12.98551666 19.37857971 12.98551666 19.37857971 13.65618896 21.00817871 C14.57725255 23.25259534 15.49484827 25.49843787 16.40917969 27.74560547 C17.80974563 31.1807444 19.22844433 34.6080101 20.6484375 38.03515625 C21.54277974 40.22089906 22.43604577 42.4070826 23.328125 44.59375 C23.75305237 45.61577515 24.17797974 46.63780029 24.61578369 47.6907959 C28.32931137 56.90213579 28.32931137 56.90213579 27.5625 61.6875 C25.5625 63.6875 25.5625 63.6875 22.1875 64.1875 C18.5625 63.6875 18.5625 63.6875 16.3125 61.3125 C14.5625 57.6875 14.5625 57.6875 11.5625 47.6875 C3.9725 47.6875 -3.6175 47.6875 -11.4375 47.6875 C-11.9325 50.1625 -11.9325 50.1625 -12.4375 52.6875 C-13.06404306 54.45226294 -13.73127216 56.20308751 -14.4375 57.9375 C-14.788125 58.80890625 -15.13875 59.6803125 -15.5 60.578125 C-16.4375 62.6875 -16.4375 62.6875 -17.4375 63.6875 C-20.875 63.875 -20.875 63.875 -24.4375 63.6875 C-26.4375 61.6875 -26.4375 61.6875 -26.8293457 58.76416016 C-26.65712203 53.29334958 -24.25647049 48.4374634 -22.16796875 43.4609375 C-21.73116287 42.3950943 -21.29435699 41.3292511 -20.84431458 40.23110962 C-19.92106306 37.98471777 -18.99195249 35.74072613 -18.05737305 33.49902344 C-16.62902986 30.07216837 -15.21827162 26.63849447 -13.81054688 23.203125 C-12.90987185 21.01780945 -12.00821219 18.83289941 -11.10546875 16.6484375 C-10.68347702 15.62438812 -10.26148529 14.60033875 -9.82670593 13.54525757 C-9.42651749 12.58721222 -9.02632904 11.62916687 -8.61401367 10.64208984 C-8.26537766 9.8038266 -7.91674164 8.96556335 -7.55754089 8.10189819 C-4.18759021 0.83751804 -4.18759021 0.83751804 0 0 Z M-0.4375 20.6875 C-3.4075 28.6075 -3.4075 28.6075 -6.4375 36.6875 C-2.1475 36.6875 2.1425 36.6875 6.5625 36.6875 C4.5825 31.4075 2.6025 26.1275 0.5625 20.6875 C0.2325 20.6875 -0.0975 20.6875 -0.4375 20.6875 Z " fill="#FFFFFF" transform="translate(405.4375,54.3125)"/>
<path d="M0 0 C3.5 0.25 3.5 0.25 5.5 2.25 C5.7096282 5.18970052 5.80115082 8.0427186 5.80859375 10.984375 C5.83376432 12.77344061 5.85916218 14.56250303 5.88476562 16.3515625 C5.91345575 19.17349344 5.9374691 21.99536872 5.95629883 24.81738281 C5.9780245 27.54001495 6.0174816 30.2619765 6.05859375 32.984375 C6.05870956 33.82208435 6.05882538 34.6597937 6.0589447 35.52288818 C6.15619278 41.31107595 7.06906453 45.7322454 11.25 50.0625 C15.8114646 52.46993965 19.34602217 52.59619335 24.25 51.125 C28.25473276 48.81457726 29.77556822 46.73063304 31.0594635 42.33425903 C31.80549992 38.80462379 31.69944541 35.21147246 31.74609375 31.6171875 C31.77900763 29.90754649 31.81221966 28.1979112 31.84570312 26.48828125 C31.8932647 23.79772563 31.93775836 21.10719715 31.97680664 18.41650391 C32.0163874 15.81649847 32.06793556 13.21694571 32.12109375 10.6171875 C32.1295079 9.80885468 32.13792206 9.00052185 32.14659119 8.16769409 C32.27325342 2.47674658 32.27325342 2.47674658 34.5 0.25 C39.76664362 -0.31028124 39.76664362 -0.31028124 42.16615295 1.52293396 C44.52487751 4.57701208 43.94640755 8.45011132 43.93359375 12.16015625 C43.9388356 13.04223251 43.94407745 13.92430878 43.94947815 14.83311462 C43.95590492 16.70342966 43.95455288 18.57378507 43.94604492 20.4440918 C43.93760296 23.27793617 43.96617489 26.10971776 43.99804688 28.94335938 C44.07804595 48.58987047 44.07804595 48.58987047 37.3515625 56.90625 C30.18188815 62.8432435 24.9804 64.80359441 15.60546875 64.62890625 C9.33697308 63.86407093 3.81216622 61.0799876 -0.4375 56.375 C-5.03420586 49.41029415 -5.94540996 44.21628264 -5.86328125 36.01171875 C-5.86377975 35.04974075 -5.86427826 34.08776276 -5.86479187 33.09663391 C-5.86246193 31.07538778 -5.85279761 29.05413816 -5.83618164 27.03295898 C-5.81244197 23.92991471 -5.81564709 20.82772229 -5.82226562 17.72460938 C-5.81669321 15.75780736 -5.80958609 13.79100895 -5.80078125 11.82421875 C-5.80169266 10.89405441 -5.80260406 9.96389008 -5.80354309 9.00553894 C-5.79401108 8.14737076 -5.78447906 7.28920258 -5.7746582 6.4050293 C-5.77005081 5.64892868 -5.76544342 4.89282806 -5.76069641 4.11381531 C-5.23550533 0.35902952 -3.51750529 0.25125038 0 0 Z " fill="#FFFFFF" transform="translate(237.5,54.75)"/>
<path d="M0 0 C1.13308594 -0.02449219 2.26617188 -0.04898438 3.43359375 -0.07421875 C9.80382648 -0.09662285 13.99811719 -0.07340122 18.75 4.375 C22.1103664 9.90334473 22.02871721 14.26557332 20.75 20.375 C20.255 21.86 20.255 21.86 19.75 23.375 C20.51103153 25.23882861 20.51103153 25.23882861 21.6875 27.125 C23.77192487 31.10501682 24.40047169 33.82169817 23.75 38.375 C22.30547233 42.54636334 20.76975854 45.58468713 17.25 48.3125 C11.44586197 50.77925866 5.91300155 50.55849646 -0.3125 50.5625 C-1.31861328 50.57474609 -2.32472656 50.58699219 -3.36132812 50.59960938 C-4.80862305 50.60250977 -4.80862305 50.60250977 -6.28515625 50.60546875 C-7.60592163 50.61163208 -7.60592163 50.61163208 -8.95336914 50.61791992 C-11.25 50.375 -11.25 50.375 -14.25 48.375 C-14.6242218 46.40161133 -14.6242218 46.40161133 -14.62231445 43.95703125 C-14.62854324 43.04268311 -14.63477203 42.12833496 -14.64118958 41.1862793 C-14.63197983 40.19668213 -14.62277008 39.20708496 -14.61328125 38.1875 C-14.61377975 37.17405518 -14.61427826 36.16061035 -14.61479187 35.11645508 C-14.61244864 32.97117149 -14.60270556 30.82588529 -14.58618164 28.68066406 C-14.56259616 25.388423 -14.56561799 22.0969915 -14.57226562 18.8046875 C-14.56668894 16.72395348 -14.55957912 14.64322289 -14.55078125 12.5625 C-14.55169266 11.57290283 -14.55260406 10.58330566 -14.55354309 9.5637207 C-14.54401108 8.64937256 -14.53447906 7.73502441 -14.5246582 6.79296875 C-14.52005081 5.98625732 -14.51544342 5.1795459 -14.51069641 4.34838867 C-13.66743418 -2.0348374 -4.75931939 0.00534155 0 0 Z M-4.25 10.375 C-4.25 13.345 -4.25 16.315 -4.25 19.375 C-2.31318839 19.45607583 -0.3754066 19.51422475 1.5625 19.5625 C2.64144531 19.59730469 3.72039063 19.63210937 4.83203125 19.66796875 C7.73752193 19.6191655 7.73752193 19.6191655 9.6484375 18.02734375 C11.01688086 16.34018777 11.01688086 16.34018777 10.5625 13.75 C10.00355766 11.20947997 10.00355766 11.20947997 7.75 10.375 C5.70944995 10.30434383 3.66665743 10.29078024 1.625 10.3125 C0.52929688 10.32152344 -0.56640625 10.33054688 -1.6953125 10.33984375 C-2.95988281 10.35724609 -2.95988281 10.35724609 -4.25 10.375 Z M-4.25 30.375 C-4.25 33.345 -4.25 36.315 -4.25 39.375 C-1.97975032 39.45597324 0.29132075 39.51417704 2.5625 39.5625 C4.45935547 39.61470703 4.45935547 39.61470703 6.39453125 39.66796875 C9.68265203 39.6579859 9.68265203 39.6579859 11.71484375 38.02734375 C13.0141294 36.32607528 13.0141294 36.32607528 12.5 33.75 C11.97254355 31.4437593 11.97254355 31.4437593 10.75 30.375 C8.21950598 30.30186433 5.71695163 30.28252473 3.1875 30.3125 C2.47658203 30.31701172 1.76566406 30.32152344 1.03320312 30.32617188 C-0.72790013 30.33799136 -2.48896036 30.35592737 -4.25 30.375 Z " fill="#FFFFFF" transform="translate(652.25,133.625)"/>
<path d="M0 0 C8.18126114 1.54363418 13.5125003 12.9419422 18.078125 19.453125 C19.78611725 21.87775735 21.52603545 24.25886425 23.3125 26.625 C23.33231934 25.90844238 23.35213867 25.19188477 23.37255859 24.45361328 C23.46759519 21.2186937 23.57736019 17.98443906 23.6875 14.75 C23.73390625 13.05810547 23.73390625 13.05810547 23.78125 11.33203125 C23.81992187 10.25566406 23.85859375 9.17929688 23.8984375 8.0703125 C23.9298584 7.07531738 23.9612793 6.08032227 23.99365234 5.05517578 C24.3125 2.625 24.3125 2.625 26.3125 0.625 C31.64583333 0.29166667 31.64583333 0.29166667 34.3125 1.625 C35.21455692 4.33117075 35.45179615 5.97144739 35.48950195 8.75756836 C35.50875481 9.99916969 35.50875481 9.99916969 35.52839661 11.26585388 C35.53578354 12.15652054 35.54317047 13.04718719 35.55078125 13.96484375 C35.558853 14.8833461 35.56692474 15.80184845 35.57524109 16.7481842 C35.58906741 18.69074624 35.59979606 20.63333243 35.60766602 22.57592773 C35.62491485 25.54782858 35.66881757 28.51862709 35.71289062 31.49023438 C35.72301474 33.37759599 35.73153172 35.26496705 35.73828125 37.15234375 C35.75578934 38.04098618 35.77329742 38.9296286 35.79133606 39.84519958 C35.76970513 45.98857095 35.76970513 45.98857095 33.46337891 49.19897461 C31.3125 50.625 31.3125 50.625 28.47265625 50.9140625 C23.62215905 48.93549133 21.59928394 45.26217975 18.75 41 C18.19892578 40.20464844 17.64785156 39.40929687 17.08007812 38.58984375 C15.99544518 37.02272284 14.91761636 35.45086739 13.84716797 33.87402344 C11.71851848 30.75453265 9.51877016 27.68994887 7.3125 24.625 C7.29268066 25.24020508 7.27286133 25.85541016 7.25244141 26.48925781 C7.15700273 29.28492542 7.04740045 32.0798651 6.9375 34.875 C6.89109375 36.32712891 6.89109375 36.32712891 6.84375 37.80859375 C6.78574219 39.21044922 6.78574219 39.21044922 6.7265625 40.640625 C6.6951416 41.49946289 6.6637207 42.35830078 6.63134766 43.24316406 C6.28749385 45.81179938 5.7428459 47.46651091 4.3125 49.625 C1.375 50.5625 1.375 50.5625 -1.6875 50.625 C-3.80657105 49.0769692 -4.58811865 48.17092271 -5.0617218 45.56932068 C-5.06109238 44.78259476 -5.06046295 43.99586884 -5.05981445 43.18530273 C-5.06604324 42.29105087 -5.07227203 41.39679901 -5.07868958 40.47544861 C-5.06947983 39.51288651 -5.06027008 38.5503244 -5.05078125 37.55859375 C-5.05152901 36.073843 -5.05152901 36.073843 -5.05229187 34.55909729 C-5.04995128 32.466868 -5.04022367 30.37463591 -5.02368164 28.2824707 C-5.00006636 25.07152272 -5.00312368 21.86140349 -5.00976562 18.65039062 C-5.00418977 16.61978669 -4.99708047 14.58918627 -4.98828125 12.55859375 C-4.98919266 11.59400742 -4.99010406 10.62942108 -4.99104309 9.63560486 C-4.98151108 8.74450516 -4.97197906 7.85340546 -4.9621582 6.93530273 C-4.95755081 6.14937241 -4.95294342 5.36344208 -4.94819641 4.55369568 C-4.50789165 1.29621361 -3.05003608 0.70931072 0 0 Z " fill="#FFFFFF" transform="translate(497.6875,133.375)"/>
<path d="M0 0 C1.32 6.36 1.32 6.36 0 9 C-3.14718767 10.57359384 -5.65411653 9.73001094 -9 9 C-9.66 8.67 -10.32 8.34 -11 8 C-15.67470792 7.42968563 -19.12316498 7.56158249 -23.375 9.6875 C-26.66449988 12.58539275 -28.68645625 14.64842187 -29.28125 19.109375 C-29.48278567 24.11417748 -28.91554541 27.77748596 -26 32 C-22.25673485 35.01540804 -18.74444943 35.65494913 -14 36 C-11.67841935 35.65340705 -11.67841935 35.65340705 -10 35 C-9.67 33.02 -9.34 31.04 -9 29 C-10.2375 29.0825 -11.475 29.165 -12.75 29.25 C-15.86513715 29.23893379 -16.84144398 29.10054772 -19.5625 27.375 C-21 25 -21 25 -20.875 21.8125 C-20.58625 20.884375 -20.2975 19.95625 -20 19 C-16.72978041 17.36489021 -13.15266249 17.77371701 -9.5625 17.75 C-8.78583984 17.729375 -8.00917969 17.70875 -7.20898438 17.6875 C-1.48214737 17.64803859 -1.48214737 17.64803859 0.71704102 19.25341797 C3.12844683 22.53623381 2.51181005 26.44225271 2.5 30.375 C2.52835937 31.22578125 2.55671875 32.0765625 2.5859375 32.953125 C2.59956795 37.32850047 2.46057026 39.38212229 -0.21875 42.9765625 C-7.22228941 48.07183415 -14.66562428 47.81290112 -23 47 C-30.49930432 44.89510388 -35.18054971 40.69071537 -39 34 C-42.14363731 27.71272538 -41.89568309 19.9965606 -40.3828125 13.24609375 C-37.90581524 6.06718577 -33.62881884 1.65044842 -27.08984375 -2.09375 C-17.81791276 -6.2061465 -8.78722527 -4.26971467 0 0 Z " fill="#FFFFFF" transform="translate(486,137)"/>
<path d="M0 0 C5.33991581 3.5053435 9.42894278 7.70652961 11 14 C11.9086358 22.64918419 12.28906374 31.26983137 7.69921875 38.9765625 C4.0211872 43.35637938 -0.61056349 46.20352116 -6 48 C-13.92035401 48.61390292 -21.49803575 49.11319519 -28 44 C-34.60889304 37.80851073 -36.59330842 31.1327587 -37.0546875 22.31640625 C-36.92391457 14.3859621 -34.53285795 8.41322186 -29.01171875 2.6953125 C-20.64025469 -4.35947468 -9.57472244 -5.27505499 0 0 Z M-22 11 C-25.30686577 15.82976448 -26.75222777 20.08963898 -26 26 C-24.35122967 31.11986575 -22.67936313 34.23492179 -18 37 C-13.82433119 38.159908 -11.48928685 38.14098096 -7.3125 36.9375 C-2.90384309 34.35885162 -0.75350386 31.85292151 0.56640625 26.85546875 C1.43851522 21.4667533 0.85598665 17.79068729 -2 13 C-4.53904738 10.15868507 -6.39201123 8.2977757 -10.21484375 7.58984375 C-14.86465521 7.41189755 -18.45859804 7.76214678 -22 11 Z " fill="#FFFFFF" transform="translate(254,136)"/>
<path d="M0 0 C1.14855469 0.00322266 2.29710937 0.00644531 3.48046875 0.00976562 C4.61355469 -0.00634766 5.74664063 -0.02246094 6.9140625 -0.0390625 C13.76060903 -0.04307572 18.64680083 0.23828125 24.0234375 4.86523438 C30.18143478 12.12718635 31.83993521 18.45830375 31.57421875 28.00195312 C30.85835519 34.91654431 29.08636412 41.08301245 23.85546875 45.88476562 C17.62879955 50.8572479 10.62884411 50.6318016 3.04296875 50.57226562 C1.54733398 50.58386719 1.54733398 50.58386719 0.02148438 50.59570312 C-0.93435547 50.593125 -1.89019531 50.59054688 -2.875 50.58789062 C-3.74278076 50.58563477 -4.61056152 50.58337891 -5.50463867 50.58105469 C-7.76953125 50.32226562 -7.76953125 50.32226562 -10.76953125 48.32226562 C-11.14375305 46.34887695 -11.14375305 46.34887695 -11.1418457 43.90429688 C-11.14807449 42.98994873 -11.15430328 42.07560059 -11.16072083 41.13354492 C-11.15151108 40.14394775 -11.14230133 39.15435059 -11.1328125 38.13476562 C-11.133311 37.1213208 -11.13380951 36.10787598 -11.13432312 35.0637207 C-11.13197989 32.91843711 -11.12223681 30.77315092 -11.10571289 28.62792969 C-11.08212741 25.33568862 -11.08514924 22.04425713 -11.09179688 18.75195312 C-11.08622019 16.67121911 -11.07911037 14.59048852 -11.0703125 12.50976562 C-11.07122391 11.52016846 -11.07213531 10.53057129 -11.07307434 9.51098633 C-11.06354233 8.59663818 -11.05401031 7.68229004 -11.04418945 6.74023438 C-11.03958206 5.93352295 -11.03497467 5.12681152 -11.03022766 4.2956543 C-10.27862888 -1.39370872 -4.37947677 0.02837117 0 0 Z M-0.76953125 10.32226562 C-0.76953125 19.89226562 -0.76953125 29.46226562 -0.76953125 39.32226562 C12.4756289 40.7798874 12.4756289 40.7798874 18.23046875 35.32226562 C20.97161866 30.21262969 20.74516098 24.97557863 20.23046875 19.32226562 C18.93883203 15.0674623 17.99510248 13.8001617 14.23046875 11.44726562 C9.15814078 9.82589873 9.15814078 9.82589873 -0.76953125 10.32226562 Z " fill="#FFFFFF" transform="translate(564.76953125,133.677734375)"/>
<path d="M0 0 C1.61551758 -0.04350586 1.61551758 -0.04350586 3.26367188 -0.08789062 C9.84145712 -0.14031932 14.07024232 0.19308198 19.3125 4.3125 C22.28044087 7.97557977 22.70082689 10.78289578 22.625 15.4375 C22.62113281 16.47132813 22.61726563 17.50515625 22.61328125 18.5703125 C22.3125 21.3125 22.3125 21.3125 20.3125 24.3125 C20.43555328 27.62411157 20.43555328 27.62411157 21.0625 31.25 C21.24296875 32.47589844 21.4234375 33.70179688 21.609375 34.96484375 C22.2123662 37.83575185 22.92598831 39.78110936 24.3125 42.3125 C24.66345988 45.19037098 24.68731269 46.68781218 23.1875 49.1875 C21.3125 50.3125 21.3125 50.3125 18.3125 50.1875 C15.16305672 49.26891238 14.26957798 48.83740624 12.3125 46.3125 C11.58203125 43.71875 11.58203125 43.71875 11.125 40.8125 C10.96644531 39.8534375 10.80789063 38.894375 10.64453125 37.90625 C10.3125 35.3125 10.3125 35.3125 10.3125 32.3125 C3.3825 31.8175 3.3825 31.8175 -3.6875 31.3125 C-3.65269531 32.43269531 -3.61789062 33.55289063 -3.58203125 34.70703125 C-3.55389161 36.17967251 -3.52659163 37.65232998 -3.5 39.125 C-3.47486328 39.86298828 -3.44972656 40.60097656 -3.42382812 41.36132812 C-3.35004967 46.79634077 -3.35004967 46.79634077 -5.0078125 49.33203125 C-6.6875 50.3125 -6.6875 50.3125 -9.75 50.1875 C-12.6875 49.3125 -12.6875 49.3125 -14.6875 46.3125 C-14.93473816 44.37744141 -14.93473816 44.37744141 -14.93041992 42.1640625 C-14.93349655 41.33310059 -14.93657318 40.50213867 -14.93974304 39.64599609 C-14.93255753 38.75219238 -14.92537201 37.85838867 -14.91796875 36.9375 C-14.91751053 36.01662598 -14.91705231 35.09575195 -14.9165802 34.14697266 C-14.91355947 32.2001822 -14.90567854 30.25339413 -14.89331055 28.30664062 C-14.87507113 25.32413178 -14.87280079 22.34193376 -14.87304688 19.359375 C-14.86813087 17.46874731 -14.8623022 15.57812173 -14.85546875 13.6875 C-14.85435593 12.79369629 -14.8532431 11.89989258 -14.85209656 10.97900391 C-14.84252678 9.73256104 -14.84252678 9.73256104 -14.83276367 8.4609375 C-14.82895187 7.73052246 -14.82514008 7.00010742 -14.82121277 6.24755859 C-14.6875 4.3125 -14.6875 4.3125 -13.6875 1.3125 C-9.62557494 -0.71846253 -4.46465626 0.03937087 0 0 Z M-3.6875 10.3125 C-3.6875 13.6125 -3.6875 16.9125 -3.6875 20.3125 C-1.58445523 20.4205023 0.52016909 20.49808987 2.625 20.5625 C3.79675781 20.60890625 4.96851563 20.6553125 6.17578125 20.703125 C9.3745615 20.61872904 9.3745615 20.61872904 11.26953125 18.46484375 C12.60332992 16.28691873 12.60332992 16.28691873 11.6875 13.625 C10.46853006 11.00128163 10.46853006 11.00128163 7.3125 10.3125 C5.41779184 10.2439505 3.5208166 10.22769628 1.625 10.25 C0.63113281 10.25902344 -0.36273438 10.26804688 -1.38671875 10.27734375 C-2.14597656 10.28894531 -2.90523438 10.30054688 -3.6875 10.3125 Z " fill="#FFFFFF" transform="translate(363.6875,133.6875)"/>
<path d="M0 0 C2.85742188 -0.37231445 2.85742188 -0.37231445 6.46875 -0.36328125 C7.76167969 -0.36263672 9.05460938 -0.36199219 10.38671875 -0.36132812 C11.06138184 -0.35302979 11.73604492 -0.34473145 12.43115234 -0.33618164 C14.49225951 -0.3125886 16.5520734 -0.31561974 18.61328125 -0.32226562 C28.7332276 -0.2667724 28.7332276 -0.2667724 31 2 C31.25 5 31.25 5 31 8 C29 10 29 10 26.93701172 10.22705078 C25.69588623 10.21134033 25.69588623 10.21134033 24.4296875 10.1953125 C23.08583984 10.18564453 23.08583984 10.18564453 21.71484375 10.17578125 C20.77769531 10.15902344 19.84054687 10.14226562 18.875 10.125 C17.45767578 10.11146484 17.45767578 10.11146484 16.01171875 10.09765625 C13.67437173 10.07404668 11.33715451 10.03817494 9 10 C9 12.97 9 15.94 9 19 C10.19238281 18.96519531 11.38476562 18.93039063 12.61328125 18.89453125 C14.17967342 18.86639247 15.74608081 18.8390924 17.3125 18.8125 C18.09818359 18.78736328 18.88386719 18.76222656 19.69335938 18.73632812 C20.45068359 18.72666016 21.20800781 18.71699219 21.98828125 18.70703125 C23.03302612 18.68346558 23.03302612 18.68346558 24.09887695 18.65942383 C26.61080589 19.10942265 27.50173258 19.96326956 29 22 C28.56521739 27.43478261 28.56521739 27.43478261 27 29 C25.65732587 29.08631874 24.31025678 29.10706473 22.96484375 29.09765625 C22.15595703 29.09443359 21.34707031 29.09121094 20.51367188 29.08789062 C19.66353516 29.07951172 18.81339844 29.07113281 17.9375 29.0625 C17.08349609 29.05798828 16.22949219 29.05347656 15.34960938 29.04882812 C13.23304337 29.03700373 11.11651315 29.01906769 9 29 C9 32.3 9 35.6 9 39 C10.42054688 38.97679687 11.84109375 38.95359375 13.3046875 38.9296875 C15.16145309 38.91093229 17.01822435 38.89273183 18.875 38.875 C19.81214844 38.85824219 20.74929688 38.84148437 21.71484375 38.82421875 C22.61074219 38.81777344 23.50664063 38.81132812 24.4296875 38.8046875 C25.25710449 38.79421387 26.08452148 38.78374023 26.93701172 38.77294922 C29 39 29 39 31 41 C31.3125 44.5 31.3125 44.5 31 48 C26.02977531 51.31348312 20.33796407 50.32756183 14.5 50.3125 C12.62634766 50.33666992 12.62634766 50.33666992 10.71484375 50.36132812 C9.51988281 50.36197266 8.32492187 50.36261719 7.09375 50.36328125 C5.44922852 50.36775269 5.44922852 50.36775269 3.77148438 50.37231445 C0.58255605 49.9439216 -0.07593368 49.49047602 -2 47 C-2.3742218 44.98901367 -2.3742218 44.98901367 -2.37231445 42.66796875 C-2.37854324 41.79696533 -2.38477203 40.92596191 -2.39118958 40.02856445 C-2.38197983 39.09101318 -2.37277008 38.15346191 -2.36328125 37.1875 C-2.36377975 36.22223389 -2.36427826 35.25696777 -2.36479187 34.26245117 C-2.36245123 32.22149599 -2.35272332 30.18053793 -2.33618164 28.13964844 C-2.31259133 25.01210777 -2.31562057 21.88541951 -2.32226562 18.7578125 C-2.31668883 16.77603657 -2.30957894 14.79426425 -2.30078125 12.8125 C-2.30169266 11.87494873 -2.30260406 10.93739746 -2.30354309 9.97143555 C-2.29401108 9.10043213 -2.28447906 8.22942871 -2.2746582 7.33203125 C-2.27005081 6.56608643 -2.26544342 5.8001416 -2.26069641 5.01098633 C-2 3 -2 3 0 0 Z " fill="#FFFFFF" transform="translate(602,134)"/>
<path d="M0 0 C1.29292969 -0.00257813 2.58585937 -0.00515625 3.91796875 -0.0078125 C4.59263184 -0.00362305 5.26729492 0.00056641 5.96240234 0.00488281 C8.02341157 0.0155843 10.08354919 0.00498557 12.14453125 -0.0078125 C13.43746094 -0.00523437 14.73039062 -0.00265625 16.0625 0 C17.25423828 0.00225586 18.44597656 0.00451172 19.67382812 0.00683594 C22.53125 0.265625 22.53125 0.265625 24.53125 2.265625 C24.78125 5.265625 24.78125 5.265625 24.53125 8.265625 C22.53125 10.265625 22.53125 10.265625 20.46826172 10.49267578 C19.22713623 10.47696533 19.22713623 10.47696533 17.9609375 10.4609375 C16.61708984 10.45126953 16.61708984 10.45126953 15.24609375 10.44140625 C14.30894531 10.42464844 13.37179687 10.40789062 12.40625 10.390625 C10.98892578 10.37708984 10.98892578 10.37708984 9.54296875 10.36328125 C7.20562173 10.33967168 4.86840451 10.30379994 2.53125 10.265625 C2.53125 13.235625 2.53125 16.205625 2.53125 19.265625 C3.73523438 19.24242187 4.93921875 19.21921875 6.1796875 19.1953125 C7.75520215 19.17655637 9.33072348 19.15835601 10.90625 19.140625 C11.7003125 19.12386719 12.494375 19.10710937 13.3125 19.08984375 C15.38617015 19.07227027 17.46008241 19.16227332 19.53125 19.265625 C21.53125 21.265625 21.53125 21.265625 21.65625 24.890625 C21.615 26.004375 21.57375 27.118125 21.53125 28.265625 C18.22130287 29.92059856 14.54002 29.36646835 10.90625 29.328125 C10.10445313 29.32361328 9.30265625 29.31910156 8.4765625 29.31445312 C6.49475994 29.30265668 4.51299567 29.28472105 2.53125 29.265625 C2.53125 32.565625 2.53125 35.865625 2.53125 39.265625 C4.53638672 39.23082031 4.53638672 39.23082031 6.58203125 39.1953125 C8.33593192 39.1765542 10.08983862 39.15835407 11.84375 39.140625 C12.72482422 39.12386719 13.60589844 39.10710937 14.51367188 39.08984375 C15.36123047 39.08339844 16.20878906 39.07695312 17.08203125 39.0703125 C18.25245972 39.05460205 18.25245972 39.05460205 19.4465332 39.03857422 C21.53125 39.265625 21.53125 39.265625 24.53125 41.265625 C24.91976428 44.30898686 25.16502504 46.34123432 23.38867188 48.93212891 C20.72270749 50.84610071 18.69621276 50.65400474 15.4375 50.6640625 C14.24253906 50.66792969 13.04757812 50.67179687 11.81640625 50.67578125 C10.56730469 50.66417969 9.31820313 50.65257812 8.03125 50.640625 C6.78214844 50.65222656 5.53304688 50.66382813 4.24609375 50.67578125 C2.45365234 50.66998047 2.45365234 50.66998047 0.625 50.6640625 C-0.47134766 50.66067871 -1.56769531 50.65729492 -2.69726562 50.65380859 C-5.88069946 50.20792595 -6.54950735 49.75801355 -8.46875 47.265625 C-8.8429718 45.20994568 -8.8429718 45.20994568 -8.84106445 42.82592773 C-8.84729324 41.93167587 -8.85352203 41.03742401 -8.85993958 40.11607361 C-8.85072983 39.15351151 -8.84152008 38.1909494 -8.83203125 37.19921875 C-8.83277901 35.714468 -8.83277901 35.714468 -8.83354187 34.19972229 C-8.83120128 32.107493 -8.82147367 30.01526091 -8.80493164 27.9230957 C-8.78131636 24.71214772 -8.78437368 21.50202849 -8.79101562 18.29101562 C-8.78543977 16.26041169 -8.77833047 14.22981127 -8.76953125 12.19921875 C-8.77044266 11.23463242 -8.77135406 10.27004608 -8.77229309 9.27622986 C-8.76276108 8.38513016 -8.75322906 7.49403046 -8.7434082 6.57592773 C-8.73880081 5.78999741 -8.73419342 5.00406708 -8.72944641 4.19432068 C-8.05685982 -0.78163906 -4.04637398 0.00765944 0 0 Z " fill="#FFFFFF" transform="translate(320.46875,133.734375)"/>
<path d="M0 0 C3.46075605 1.96788089 5.80376631 3.60935785 8.1875 6.8125 C8.1875 10 8.1875 10 7.1875 12.8125 C4.1875 14.8125 4.1875 14.8125 1 14.4375 C0.071875 14.23125 -0.85625 14.025 -1.8125 13.8125 C-1.8125 13.1525 -1.8125 12.4925 -1.8125 11.8125 C-5.75801835 10.49732722 -9.9893416 9.9009208 -13.8125 11.8125 C-13.83525454 13.74442203 -13.83525454 13.74442203 -12.8125 15.8125 C-10.54100175 16.97500761 -8.44455439 17.88927792 -6.0625 18.75 C-0.0534746 21.00652732 3.989563 23.33576329 7.4765625 28.8515625 C8.79348067 32.48394119 8.72795812 36.01611125 8.1875 39.8125 C5.53391502 44.93012818 2.65632174 47.98955942 -2.8125 49.8125 C-10.66334292 50.4676319 -17.24558196 50.46406694 -23.8125 45.8125 C-24.658125 45.214375 -25.50375 44.61625 -26.375 44 C-27.8125 41.8125 -27.8125 41.8125 -27.625 38.125 C-26.8125 34.8125 -26.8125 34.8125 -25.8125 33.8125 C-21.72312745 33.4192911 -19.5904697 33.22427901 -16.25 35.75 C-15.445625 36.430625 -14.64125 37.11125 -13.8125 37.8125 C-10.48124645 38.76428673 -8.67808323 39.15417759 -5.4375 37.875 C-4.90125 37.524375 -4.365 37.17375 -3.8125 36.8125 C-3.78974546 34.88057797 -3.78974546 34.88057797 -4.8125 32.8125 C-7.08399825 31.64999239 -9.18044561 30.73572208 -11.5625 29.875 C-17.53138983 27.63354451 -21.3591639 25.20044033 -25.125 20 C-26.65144904 15.14311668 -26.52538886 10.61556778 -24.3125 6.0625 C-18.82667546 -2.31968644 -8.79564822 -2.73962813 0 0 Z " fill="#FFFFFF" transform="translate(207.8125,134.1875)"/>
<path d="M0 0 C1.01199463 0.00326294 1.01199463 0.00326294 2.04443359 0.0065918 C4.10567981 0.00975396 6.16549365 -0.0137114 8.2265625 -0.0390625 C9.51949219 -0.03970703 10.81242187 -0.04035156 12.14453125 -0.04101562 C13.33626953 -0.04399658 14.52800781 -0.04697754 15.75585938 -0.05004883 C16.69880859 0.07281494 17.64175781 0.19567871 18.61328125 0.32226562 C20.61328125 3.32226562 20.61328125 3.32226562 20.30078125 6.44726562 C19.61328125 9.32226562 19.61328125 9.32226562 18.61328125 10.32226562 C17.0515538 10.40912165 15.48598781 10.42928782 13.921875 10.41992188 C12.97763672 10.41669922 12.03339844 10.41347656 11.06054688 10.41015625 C10.06732422 10.40177734 9.07410156 10.39339844 8.05078125 10.38476562 C7.05369141 10.38025391 6.05660156 10.37574219 5.02929688 10.37109375 C2.55723276 10.35926569 0.08528607 10.34278412 -2.38671875 10.32226562 C-2.38671875 13.29226562 -2.38671875 16.26226562 -2.38671875 19.32226562 C-1.11054688 19.2990625 0.165625 19.27585938 1.48046875 19.25195312 C3.14973375 19.23319734 4.81900505 19.21499694 6.48828125 19.19726562 C7.33003906 19.18050781 8.17179687 19.16375 9.0390625 19.14648438 C10.24755859 19.13681641 10.24755859 19.13681641 11.48046875 19.12695312 C12.22409668 19.11647949 12.96772461 19.10600586 13.73388672 19.09521484 C15.61328125 19.32226562 15.61328125 19.32226562 17.61328125 21.32226562 C17.86328125 24.32226562 17.86328125 24.32226562 17.61328125 27.32226562 C15.61328125 29.32226562 15.61328125 29.32226562 13.73388672 29.54931641 C12.99025879 29.53884277 12.24663086 29.52836914 11.48046875 29.51757812 C10.67480469 29.51113281 9.86914062 29.5046875 9.0390625 29.49804688 C8.19730469 29.48128906 7.35554688 29.46453125 6.48828125 29.44726562 C5.21404297 29.43373047 5.21404297 29.43373047 3.9140625 29.41992188 C1.81368241 29.3963221 -0.28655319 29.36045045 -2.38671875 29.32226562 C-2.38671875 32.62226563 -2.38671875 35.92226562 -2.38671875 39.32226562 C-0.27330078 39.27005859 -0.27330078 39.27005859 1.8828125 39.21679688 C3.73045684 39.18866016 5.57811406 39.16135988 7.42578125 39.13476562 C8.81893555 39.09706055 8.81893555 39.09706055 10.24023438 39.05859375 C11.13291016 39.04892578 12.02558594 39.03925781 12.9453125 39.02929688 C13.76749268 39.01358643 14.58967285 38.99787598 15.43676758 38.98168945 C17.61328125 39.32226562 17.61328125 39.32226562 19.4128418 40.64916992 C20.61328125 42.32226562 20.61328125 42.32226562 20.48828125 45.38476562 C19.61328125 48.32226562 19.61328125 48.32226562 16.61328125 50.32226562 C13.93359375 50.58105469 13.93359375 50.58105469 10.73828125 50.58789062 C9.5884375 50.59046875 8.43859375 50.59304687 7.25390625 50.59570312 C6.0525 50.58796875 4.85109375 50.58023438 3.61328125 50.57226562 C1.81117188 50.58386719 1.81117188 50.58386719 -0.02734375 50.59570312 C-1.75210937 50.59183594 -1.75210937 50.59183594 -3.51171875 50.58789062 C-5.09339844 50.58450684 -5.09339844 50.58450684 -6.70703125 50.58105469 C-9.38671875 50.32226562 -9.38671875 50.32226562 -12.38671875 48.32226562 C-12.76094055 46.34887695 -12.76094055 46.34887695 -12.7590332 43.90429688 C-12.76526199 42.98994873 -12.77149078 42.07560059 -12.77790833 41.13354492 C-12.76869858 40.14394775 -12.75948883 39.15435059 -12.75 38.13476562 C-12.7504985 37.1213208 -12.75099701 36.10787598 -12.75151062 35.0637207 C-12.74916739 32.91843711 -12.73942431 30.77315092 -12.72290039 28.62792969 C-12.69931491 25.33568862 -12.70233674 22.04425713 -12.70898438 18.75195312 C-12.70340769 16.67121911 -12.69629787 14.59048852 -12.6875 12.50976562 C-12.68841141 11.52016846 -12.68932281 10.53057129 -12.69026184 9.51098633 C-12.68072983 8.59663818 -12.67119781 7.68229004 -12.66137695 6.74023438 C-12.65676956 5.93352295 -12.65216217 5.12681152 -12.64741516 4.2956543 C-11.84591315 -1.77146029 -4.5786992 0.02510752 0 0 Z " fill="#FFFFFF" transform="translate(405.38671875,133.677734375)"/>
<path d="M0 0 C0.89117523 -0.01283524 1.78235046 -0.02567047 2.70053101 -0.03889465 C3.67027863 -0.04628159 4.64002625 -0.05366852 5.63916016 -0.0612793 C6.62945221 -0.06935104 7.61974426 -0.07742279 8.64004517 -0.08573914 C10.73999267 -0.09959714 12.83996286 -0.11031158 14.93994141 -0.11816406 C18.15782135 -0.13538884 21.37467743 -0.1792612 24.59228516 -0.22338867 C26.62873591 -0.23351394 28.66519542 -0.24203056 30.70166016 -0.2487793 C31.66735931 -0.26628738 32.63305847 -0.28379547 33.62802124 -0.30183411 C34.52550079 -0.29890854 35.42298035 -0.29598297 36.34765625 -0.29296875 C37.53226944 -0.30176811 37.53226944 -0.30176811 38.74081421 -0.31074524 C40.80322266 0.17700195 40.80322266 0.17700195 42.59341431 2.04231262 C43.80322266 4.17700195 43.80322266 4.17700195 43.61572266 6.80200195 C42.80322266 9.17700195 42.80322266 9.17700195 40.80322266 11.17700195 C37.89386686 11.32217939 35.08327665 11.36330991 32.17822266 11.30200195 C31.37642578 11.29297852 30.57462891 11.28395508 29.74853516 11.2746582 C27.76663743 11.25106418 25.78489285 11.2151926 23.80322266 11.17700195 C23.80766388 11.79896454 23.8121051 12.42092712 23.81668091 13.06173706 C23.86082505 19.51761586 23.89105184 25.973452 23.91308594 32.42944336 C23.9231622 34.8409194 23.93682347 37.25238317 23.95410156 39.66381836 C23.97827856 43.12397281 23.98968934 46.58396615 23.99853516 50.04418945 C24.00885773 51.12755585 24.0191803 52.21092224 24.02981567 53.32711792 C24.02996674 54.32800446 24.0301178 55.32889099 24.03027344 56.36010742 C24.03471466 57.24391083 24.03915588 58.12771423 24.04373169 59.03829956 C23.80322266 61.17700195 23.80322266 61.17700195 21.80322266 63.17700195 C18.30322266 63.42700195 18.30322266 63.42700195 14.80322266 63.17700195 C12.80322266 61.17700195 12.80322266 61.17700195 12.56271362 59.03829956 C12.56937546 57.71259445 12.56937546 57.71259445 12.57617188 56.36010742 C12.57632294 55.35922089 12.576474 54.35833435 12.57662964 53.32711792 C12.58695221 52.24375153 12.59727478 51.16038513 12.60791016 50.04418945 C12.61074005 48.9372171 12.61356995 47.83024475 12.6164856 46.68972778 C12.62770747 43.14371058 12.65281575 39.5979432 12.67822266 36.05200195 C12.68824986 33.65226601 12.69737616 31.25252612 12.70556641 28.8527832 C12.72765333 22.96077045 12.76115059 17.06890404 12.80322266 11.17700195 C11.01464844 11.26401367 11.01464844 11.26401367 9.18994141 11.3527832 C7.62357425 11.39968042 6.05716482 11.44518063 4.49072266 11.48950195 C3.31219727 11.55234375 3.31219727 11.55234375 2.10986328 11.61645508 C-0.09613747 11.66339126 -2.0397814 11.64700663 -4.19677734 11.17700195 C-6.28662109 8.8293457 -6.28662109 8.8293457 -7.19677734 6.17700195 C-5.8430629 1.21338232 -4.98356451 0.062246 0 0 Z " fill="#FFFFFF" transform="translate(339.19677734375,54.822998046875)"/>
<path d="M0 0 C1.19625 0.12375 2.3925 0.2475 3.625 0.375 C7.12376431 4.91290684 9.07308971 10.75685119 11.3125 16 C11.72822266 16.95390625 12.14394531 17.9078125 12.57226562 18.890625 C12.96478516 19.80585938 13.35730469 20.72109375 13.76171875 21.6640625 C14.11967529 22.49631348 14.47763184 23.32856445 14.84643555 24.18603516 C15.625 26.375 15.625 26.375 15.625 29.375 C16.285 29.375 16.945 29.375 17.625 29.375 C17.74883057 28.65787842 17.87266113 27.94075684 18.00024414 27.2019043 C19.08047483 22.31406095 21.15816731 17.80379318 23.0625 13.1875 C23.47048828 12.17751953 23.87847656 11.16753906 24.29882812 10.12695312 C24.69392578 9.16337891 25.08902344 8.19980469 25.49609375 7.20703125 C25.85630615 6.32764893 26.21651855 5.4482666 26.58764648 4.54223633 C27.625 2.375 27.625 2.375 29.625 0.375 C33.125 0.0625 33.125 0.0625 36.625 0.375 C38.625 3.375 38.625 3.375 38.46826172 5.99707031 C37.39040171 10.31475157 35.82284827 14.31108689 34.1328125 18.421875 C33.78620575 19.27428772 33.439599 20.12670044 33.08248901 21.00494385 C32.35098009 22.7980541 31.61622508 24.58984314 30.87841797 26.38037109 C29.74986309 29.12533301 28.63813503 31.87671593 27.52734375 34.62890625 C26.81351021 36.37280969 26.09870009 38.11631376 25.3828125 39.859375 C25.05145294 40.6833075 24.72009338 41.50723999 24.37869263 42.35614014 C24.06181488 43.11743225 23.74493713 43.87872437 23.41845703 44.66308594 C23.14389679 45.3333783 22.86933655 46.00367065 22.5864563 46.6942749 C21.625 48.375 21.625 48.375 18.625 50.375 C15.6875 50.5 15.6875 50.5 12.625 49.375 C11.57356262 47.79666138 11.57356262 47.79666138 10.65161133 45.80517578 C10.31271881 45.08170959 9.97382629 44.35824341 9.62466431 43.612854 C9.29477509 42.87436218 8.96488586 42.13587036 8.625 41.375 C8.3293515 40.71852478 8.033703 40.06204956 7.72909546 39.38568115 C5.85404399 35.14169145 4.07306808 30.85669393 2.28686523 26.57470703 C1.63466883 25.01865238 0.97607863 23.4652629 0.3112793 21.91455078 C-0.65724835 19.65457356 -1.60597999 17.38716883 -2.55078125 15.1171875 C-2.84962723 14.42954315 -3.14847321 13.7418988 -3.45637512 13.03341675 C-5.20852112 8.74612678 -5.65730807 5.8493105 -4.375 1.375 C-3.375 0.375 -3.375 0.375 0 0 Z " fill="#FFFFFF" transform="translate(270.375,133.625)"/>
<path d="M0 0 C3.5 0.25 3.5 0.25 5.5 2.25 C5.74050903 4.38870239 5.74050903 4.38870239 5.72705078 7.06689453 C5.72682419 8.56822433 5.72682419 8.56822433 5.72659302 10.09988403 C5.71627045 11.18325043 5.70594788 12.26661682 5.6953125 13.3828125 C5.6924826 14.48978485 5.68965271 15.5967572 5.68673706 16.73727417 C5.67551519 20.28329137 5.65040691 23.82905875 5.625 27.375 C5.6149728 29.77473594 5.6058465 32.17447583 5.59765625 34.57421875 C5.57556932 40.46623151 5.54207207 46.35809791 5.5 52.25 C6.27190674 52.23428955 7.04381348 52.2185791 7.83911133 52.20239258 C11.33016662 52.14010393 14.82110509 52.10102827 18.3125 52.0625 C19.52744141 52.03736328 20.74238281 52.01222656 21.99414062 51.98632812 C23.73920898 51.97182617 23.73920898 51.97182617 25.51953125 51.95703125 C26.59307861 51.9413208 27.66662598 51.92561035 28.77270508 51.90942383 C31.5 52.25 31.5 52.25 33.35424805 53.5769043 C35.11271316 56.14472049 34.82139423 58.22889424 34.5 61.25 C31.95434588 63.79565412 30.30824286 63.4972401 26.8359375 63.52789307 C25.67964844 63.52182037 25.67964844 63.52182037 24.5 63.515625 C23.70851563 63.51753845 22.91703125 63.5194519 22.1015625 63.52142334 C20.4270801 63.52278518 18.75258715 63.51908882 17.078125 63.51074219 C14.51017619 63.5000424 11.94292697 63.51063725 9.375 63.5234375 C7.74999845 63.5221159 6.12499734 63.51955351 4.5 63.515625 C3.34371094 63.52169769 3.34371094 63.52169769 2.1640625 63.52789307 C-3.27007868 63.47992132 -3.27007868 63.47992132 -5.5 61.25 C-5.75396729 58.78308105 -5.75396729 58.78308105 -5.75878906 55.63867188 C-5.76509338 54.46405396 -5.77139771 53.28943604 -5.77789307 52.07922363 C-5.7738446 50.80526733 -5.76979614 49.53131104 -5.765625 48.21875 C-5.76753845 46.91675659 -5.7694519 45.61476318 -5.77142334 44.27331543 C-5.77437391 41.51598372 -5.77007924 38.75878151 -5.76074219 36.00146484 C-5.74934753 32.46372927 -5.75590738 28.92629713 -5.76788712 25.38857269 C-5.77684394 22.01944066 -5.7705764 18.65039066 -5.765625 15.28125 C-5.76967346 14.0072937 -5.77372192 12.7333374 -5.77789307 11.42077637 C-5.77158875 10.24615845 -5.76528442 9.07154053 -5.75878906 7.86132812 C-5.75719788 6.8236731 -5.75560669 5.78601807 -5.75396729 4.71691895 C-5.32877921 0.58684168 -4.0096235 0.28640168 0 0 Z " fill="#FFFFFF" transform="translate(634.5,54.75)"/>
<path d="M0 0 C0.79289932 -0.00570007 1.58579865 -0.01140015 2.40272522 -0.01727295 C4.08316711 -0.02673598 5.76362767 -0.03326209 7.4440918 -0.03710938 C10.02099802 -0.04682164 12.5971091 -0.0778344 15.17382812 -0.109375 C16.80338066 -0.11590407 18.43293892 -0.12115492 20.0625 -0.125 C21.22349464 -0.1435202 21.22349464 -0.1435202 22.40794373 -0.16241455 C24.58178711 -0.15332031 24.58178711 -0.15332031 28.09765625 0.203125 C30.09765625 3.203125 30.09765625 3.203125 29.78515625 6.328125 C29.09765625 9.203125 29.09765625 9.203125 28.09765625 10.203125 C25.91126172 10.27571446 23.72265236 10.28686283 21.53515625 10.265625 C19.73884766 10.25208984 19.73884766 10.25208984 17.90625 10.23828125 C16.97941406 10.22667969 16.05257812 10.21507812 15.09765625 10.203125 C15.1133667 11.34378418 15.12907715 12.48444336 15.14526367 13.65966797 C15.19947149 17.8825782 15.23397278 22.10545756 15.26245117 26.32861328 C15.27755876 28.15809293 15.29804593 29.98753625 15.32397461 31.81689453 C15.3602721 34.44312492 15.3773624 37.06887749 15.390625 39.6953125 C15.40610886 40.51619354 15.42159271 41.33707458 15.43754578 42.18283081 C15.43823242 44.48779297 15.43823242 44.48779297 15.09765625 48.203125 C12.09765625 50.203125 12.09765625 50.203125 8.97265625 49.890625 C6.09765625 49.203125 6.09765625 49.203125 5.09765625 48.203125 C5.00903633 45.3914912 4.9824327 42.60454245 5 39.79296875 C5.00141495 38.95093399 5.0028299 38.10889923 5.00428772 37.24134827 C5.00990362 34.54107165 5.02245877 31.84087672 5.03515625 29.140625 C5.0401692 27.31445432 5.04473246 25.48828234 5.04882812 23.66210938 C5.05987821 19.17574958 5.07715346 14.68945116 5.09765625 10.203125 C4.18242188 10.23792969 3.2671875 10.27273437 2.32421875 10.30859375 C1.13570312 10.33566406 -0.0528125 10.36273438 -1.27734375 10.390625 C-3.05238281 10.44283203 -3.05238281 10.44283203 -4.86328125 10.49609375 C-6.36761719 10.35107422 -6.36761719 10.35107422 -7.90234375 10.203125 C-9.90234375 7.203125 -9.90234375 7.203125 -9.58984375 4.078125 C-8.29491614 -1.33702682 -4.83485317 0.02647808 0 0 Z " fill="#FFFFFF" transform="translate(684.90234375,133.796875)"/>
<path d="M0 0 C2.62848345 3.47146362 3.37694417 6.04307723 3.38818359 10.35351562 C3.39764008 11.39809937 3.40709656 12.44268311 3.4168396 13.5189209 C3.41076691 14.6367395 3.40469421 15.75455811 3.3984375 16.90625 C3.40274277 18.64243591 3.40274277 18.64243591 3.40713501 20.41369629 C3.40917419 22.85799652 3.40365459 25.30231312 3.39111328 27.74658203 C3.3750585 31.48637406 3.39096791 35.22508531 3.41015625 38.96484375 C3.40817379 41.34114822 3.40433007 43.71745201 3.3984375 46.09375 C3.40754654 47.77047791 3.40754654 47.77047791 3.4168396 49.4810791 C3.40738312 50.52566284 3.39792664 51.57024658 3.38818359 52.64648438 C3.38579681 53.5618396 3.38341003 54.47719482 3.38095093 55.42028809 C2.91292048 58.58968243 1.95716263 60.47316318 0 63 C-3.5625 63.4375 -3.5625 63.4375 -7 63 C-9.6353954 60.3646046 -9.25799931 59.1730381 -9.2746582 55.49633789 C-9.28419022 54.34496841 -9.29372223 53.19359894 -9.30354309 52.00733948 C-9.30263168 50.75839401 -9.30172028 49.50944855 -9.30078125 48.22265625 C-9.30506638 46.94523056 -9.3093515 45.66780487 -9.31376648 44.35166931 C-9.31951912 41.64552122 -9.32093441 38.93975338 -9.31567383 36.23364258 C-9.30988039 32.76540507 -9.32680408 29.29770181 -9.3500185 25.82955265 C-9.36829243 22.52309099 -9.36457062 19.21665935 -9.36328125 15.91015625 C-9.372491 14.66323502 -9.38170074 13.41631378 -9.39118958 12.13160706 C-9.38496078 10.97708542 -9.37873199 9.82256378 -9.37231445 8.63305664 C-9.37294388 7.61538712 -9.3735733 6.59771759 -9.3742218 5.54920959 C-9 3 -9 3 -7.66423035 1.17918396 C-5.01395276 -0.69865995 -3.13935455 -0.52322576 0 0 Z " fill="#FFFFFF" transform="translate(447,55)"/>
<path d="M0 0 C3.70791544 -0.14592789 7.41508726 -0.23427895 11.125 -0.3125 C12.69507813 -0.3753418 12.69507813 -0.3753418 14.296875 -0.43945312 C23.0316113 -0.57766098 23.0316113 -0.57766098 26.67578125 2.24609375 C29.9687878 6.14789143 30.40922739 8.9954901 30 14 C29.245149 16.58064686 28.27314089 18.60649512 27 21 C27.639375 21.598125 28.27875 22.19625 28.9375 22.8125 C31.63032062 25.66852187 31.96164342 27.48218611 32.25 31.375 C31.91941521 36.16847941 30.59118092 38.60771669 27 41.75 C23.67803662 43.82622711 20.97274614 44.12778335 17.1484375 44.1328125 C16.21515625 44.13410156 15.281875 44.13539063 14.3203125 44.13671875 C13.34835937 44.13285156 12.37640625 44.12898438 11.375 44.125 C10.3953125 44.12886719 9.415625 44.13273437 8.40625 44.13671875 C7.47554688 44.13542969 6.54484375 44.13414062 5.5859375 44.1328125 C4.30275635 44.13112061 4.30275635 44.13112061 2.99365234 44.12939453 C1 44 1 44 0 43 C-0.09268999 41.64905018 -0.11747326 40.29332909 -0.11352539 38.93920898 C-0.11344986 38.07839218 -0.11337433 37.21757538 -0.11329651 36.33067322 C-0.10813522 35.39526199 -0.10297394 34.45985077 -0.09765625 33.49609375 C-0.0962413 32.54307877 -0.09482635 31.59006378 -0.09336853 30.60816956 C-0.08775152 27.55124835 -0.07519616 24.49439923 -0.0625 21.4375 C-0.05748719 19.37044376 -0.05292391 17.30338638 -0.04882812 15.23632812 C-0.03777656 10.15752412 -0.02050055 5.0787743 0 0 Z M4 4 C4 8.95 4 13.9 4 19 C6.56428515 19.13559675 9.12135216 19.23433188 11.6875 19.3125 C12.7693457 19.3753418 12.7693457 19.3753418 13.87304688 19.43945312 C18.04278143 19.53465254 19.56698043 19.32967897 23.01171875 16.70703125 C25.33856846 14.07223688 25.33856846 14.07223688 25.125 10.375 C24.31772147 6.94998276 24.31772147 6.94998276 21.91796875 5.30078125 C18.27188277 3.67541762 15.08896743 3.66803277 11.1875 3.8125 C7.6296875 3.9053125 7.6296875 3.9053125 4 4 Z M4 24 C4 28.95 4 33.9 4 39 C6.89740622 39.13539281 9.78845621 39.23426829 12.6875 39.3125 C13.50412109 39.35439453 14.32074219 39.39628906 15.16210938 39.43945312 C19.59084963 39.52910374 21.41202855 39.44984722 25.04296875 36.671875 C27.19744809 34.12057825 27.19744809 34.12057825 27.625 30.9375 C27.23409875 27.89543668 27.23409875 27.89543668 25.04296875 25.83203125 C20.84053627 23.30194032 17.48680468 23.55302775 12.6875 23.75 C11.43356445 23.77707031 11.43356445 23.77707031 10.15429688 23.8046875 C8.10236772 23.85158874 6.05103244 23.92332589 4 24 Z " fill="#FFFFFF" transform="translate(269,200)"/>
<path d="M0 0 C1.7325 0.1546875 1.7325 0.1546875 3.5 0.3125 C5.54982275 3.38723413 5.75495413 4.05978297 5.79052734 7.53686523 C5.8096669 8.8084977 5.8096669 8.8084977 5.82919312 10.1058197 C5.83253159 11.47463036 5.83253159 11.47463036 5.8359375 12.87109375 C5.8425943 13.81179214 5.8492511 14.75249054 5.85610962 15.72169495 C5.86623522 17.71133468 5.87092667 19.70100836 5.87060547 21.69067383 C5.87497861 24.73510651 5.9112989 27.77808951 5.94921875 30.82226562 C5.95508691 32.75520337 5.95905631 34.68814801 5.9609375 36.62109375 C5.97530853 37.53160995 5.98967957 38.44212616 6.00448608 39.38023376 C5.95900813 45.66917949 5.95900813 45.66917949 3.63525391 48.92602539 C1.5 50.3125 1.5 50.3125 -1.125 50.1875 C-3.5 49.3125 -3.5 49.3125 -5.5 47.3125 C-5.75396729 45.3770752 -5.75396729 45.3770752 -5.75878906 42.98632812 C-5.76509338 42.09200073 -5.77139771 41.19767334 -5.77789307 40.27624512 C-5.7738446 39.30852173 -5.76979614 38.34079834 -5.765625 37.34375 C-5.76753845 36.35250122 -5.7694519 35.36125244 -5.77142334 34.33996582 C-5.77278585 32.24177802 -5.76908482 30.14358181 -5.76074219 28.04541016 C-5.75004371 24.82565454 -5.76063536 21.60645692 -5.7734375 18.38671875 C-5.77211592 16.35156126 -5.76955355 14.31640412 -5.765625 12.28125 C-5.77169769 10.82966492 -5.77169769 10.82966492 -5.77789307 9.34875488 C-5.77158875 8.45442749 -5.76528442 7.5601001 -5.75878906 6.63867188 C-5.75719788 5.84972534 -5.75560669 5.06077881 -5.75396729 4.2479248 C-5.25691604 0.46001448 -3.55820334 0.31769673 0 0 Z " fill="#FFFFFF" transform="translate(435.5,133.6875)"/>
<path d="M0 0 C1.98 0.495 1.98 0.495 4 1 C4 6.94 4 12.88 4 19 C11.92 19 19.84 19 28 19 C28 12.73 28 6.46 28 0 C29.32 0 30.64 0 32 0 C32 14.19 32 28.38 32 43 C30.02 43.495 30.02 43.495 28 44 C28 37.4 28 30.8 28 24 C20.08 24 12.16 24 4 24 C4 30.27 4 36.54 4 43 C2.02 43.495 2.02 43.495 0 44 C-1.94863925 42.05136075 -1.1291874 39.1019128 -1.13894653 36.50878906 C-1.1369223 35.59838867 -1.13489807 34.68798828 -1.1328125 33.75 C-1.13376923 32.82155273 -1.13472595 31.89310547 -1.13571167 30.93652344 C-1.13639355 28.96940035 -1.13453872 27.00227504 -1.13037109 25.03515625 C-1.12502295 22.01296974 -1.13031582 18.99093185 -1.13671875 15.96875 C-1.13605797 14.06249967 -1.13477681 12.15624943 -1.1328125 10.25 C-1.13483673 9.33959961 -1.13686096 8.42919922 -1.13894653 7.49121094 C-1.11494969 1.11494969 -1.11494969 1.11494969 0 0 Z " fill="#FFFFFF" transform="translate(184,200)"/>
<path d="M0 0 C2.0625 0.4375 2.0625 0.4375 4 1 C4.01401855 2.36934692 4.01401855 2.36934692 4.02832031 3.76635742 C4.07245181 7.16816048 4.134114 10.56872167 4.20751953 13.9699707 C4.23566611 15.4392545 4.25691209 16.90868795 4.27099609 18.37817383 C4.2925153 20.49638114 4.33920334 22.61280153 4.390625 24.73046875 C4.41157227 26.00301514 4.43251953 27.27556152 4.45410156 28.58666992 C5.18477426 33.15533493 7.16475581 35.55802242 10.75 38.375 C14.26441498 39.35122638 17.65160071 39.39672521 21 38 C25.41351544 33.57398877 26.62733919 31.06130518 26.70703125 24.6328125 C26.72215256 23.95322479 26.73727386 23.27363708 26.75285339 22.57345581 C26.79550713 20.42362717 26.80454519 18.27520839 26.8125 16.125 C26.83566219 14.65881727 26.86103112 13.19266764 26.88867188 11.7265625 C26.9512989 8.1510679 26.98381164 4.57604108 27 1 C28.65 0.67 30.3 0.34 32 0 C32.09943798 4.5714698 32.17173349 9.14229975 32.21972656 13.71459961 C32.2397487 15.26744565 32.26697517 16.82021719 32.30175781 18.37280273 C32.3506961 20.61460832 32.37306168 22.85541093 32.390625 25.09765625 C32.41127014 25.78336197 32.43191528 26.46906769 32.45318604 27.17555237 C32.45568706 32.64042119 31.01407635 35.60690561 28 40 C23.01040333 43.97131164 18.92273626 44.63845459 12.5859375 44.38671875 C7.59341783 43.64010327 4.96117056 41.0650809 1.6875 37.4375 C-1.20371697 33.26129771 -1.12842307 29.92914154 -1.1328125 24.9609375 C-1.13376923 24.27947662 -1.13472595 23.59801575 -1.13571167 22.89590454 C-1.13639115 21.45859688 -1.13455304 20.02128612 -1.13037109 18.58398438 C-1.125003 16.37623272 -1.1303323 14.16868297 -1.13671875 11.9609375 C-1.13605825 10.56510372 -1.13477767 9.16927006 -1.1328125 7.7734375 C-1.13168457 6.49903809 -1.13055664 5.22463867 -1.12939453 3.91162109 C-1 1 -1 1 0 0 Z " fill="#FFFFFF" transform="translate(227,200)"/>
</svg>
